<svg width="30" height="30" viewBox="0 0 30 30" fill="none" xmlns="http://www.w3.org/2000/svg">
<path fill-rule="evenodd" clip-rule="evenodd" d="M7.5 3.75C7.5 3.25272 7.69755 2.77581 8.04918 2.42417C8.40081 2.07254 8.87772 1.875 9.375 1.875H20.625C21.1223 1.875 21.5992 2.07254 21.9508 2.42417C22.3025 2.77581 22.5 3.25272 22.5 3.75V7.5H22.7062C23.1242 7.50001 23.5302 7.63969 23.8598 7.89685C24.1893 8.15402 24.4234 8.51391 24.525 8.91937L24.9937 10.7944C25.063 11.0708 25.0683 11.3595 25.0093 11.6383C24.9503 11.9171 24.8285 12.1788 24.6531 12.4035C24.4778 12.6282 24.2535 12.81 23.9974 12.935C23.7413 13.06 23.46 13.125 23.175 13.125H22.5V14.0625H23.4375C23.9348 14.0625 24.4117 14.26 24.7633 14.6117C25.115 14.9633 25.3125 15.4402 25.3125 15.9375V16.875C25.3125 17.3723 25.115 17.8492 24.7633 18.2008C24.4117 18.5525 23.9348 18.75 23.4375 18.75H22.5V22.5C22.5 22.9973 22.3025 23.4742 21.9508 23.8258C21.5992 24.1775 21.1223 24.375 20.625 24.375H16.3256L15.7706 24.93L14.2219 28.0256C14.0663 28.337 13.827 28.599 13.531 28.7821C13.2349 28.9652 12.8937 29.0623 12.5456 29.0625H6.84563C6.47589 29.0622 6.11449 28.9526 5.80688 28.7475L3.64688 27.3075C3.39016 27.1362 3.17969 26.9042 3.03414 26.6321C2.88858 26.36 2.81245 26.0561 2.8125 25.7475V18.8175C2.81242 18.7284 2.81868 18.6394 2.83125 18.5513L4.5825 6.29812C4.64616 5.85116 4.86895 5.44217 5.20996 5.14629C5.55096 4.85041 5.98728 4.6875 6.43875 4.6875H7.5V3.75ZM7.5 6.5625H6.43875L4.6875 18.8175V25.7475L6.84563 27.1875H8.4375V24.6881C8.4375 24.2824 8.56908 23.8877 8.8125 23.5631L13.7625 16.9631L12.1875 15.3881L8.16375 19.4138L6.83625 18.0862L7.5 17.4244V6.5625ZM9.375 15.5494L10.8619 14.0625C11.2135 13.711 11.6903 13.5135 12.1875 13.5135C12.6847 13.5135 13.1615 13.711 13.5131 14.0625L15.0881 15.6375C15.4072 15.9566 15.6006 16.3801 15.6326 16.8303C15.6646 17.2804 15.5332 17.727 15.2625 18.0881L11.9531 22.5H20.625V3.75H9.375V15.5494ZM22.5 11.25H23.175L22.7062 9.375H22.5V11.25ZM22.5 15.9375V16.875H23.4375V15.9375H22.5ZM10.5469 24.375L10.3125 24.6881V27.1875H12.5456L13.9519 24.375H10.5469ZM14.0625 6.5625V5.625H15.9375V6.5625H14.0625ZM15 6.5625C14.2541 6.5625 13.5387 6.85882 13.0113 7.38626C12.4838 7.91371 12.1875 8.62908 12.1875 9.375H11.25V11.25H18.75V9.375H17.8125C17.8125 8.62908 17.5162 7.91371 16.9887 7.38626C16.4613 6.85882 15.7459 6.5625 15 6.5625ZM15 8.4375C14.7514 8.4375 14.5129 8.53627 14.3371 8.71209C14.1613 8.8879 14.0625 9.12636 14.0625 9.375H15.9375C15.9375 9.12636 15.8387 8.8879 15.6629 8.71209C15.4871 8.53627 15.2486 8.4375 15 8.4375ZM11.5238 18.4763L10.5863 17.5388L11.9138 16.2112L12.8513 17.1487L11.5238 18.4763Z" fill="white"/>
</svg>
