<svg width="30" height="30" viewBox="0 0 30 30" fill="none" xmlns="http://www.w3.org/2000/svg">
<path d="M21.5937 25.3125L25.9375 21L24.625 19.6875L21.5937 22.6562L20.375 21.4375L19.0625 22.7813L21.5937 25.3125ZM7.5 11.25H22.5V8.75H7.5V11.25ZM22.5 28.75C20.7708 28.75 19.2971 28.1404 18.0788 26.9213C16.8604 25.7021 16.2508 24.2283 16.25 22.5C16.2492 20.7717 16.8588 19.2979 18.0788 18.0788C19.2988 16.8596 20.7725 16.25 22.5 16.25C24.2275 16.25 25.7017 16.8596 26.9225 18.0788C28.1433 19.2979 28.7525 20.7717 28.75 22.5C28.7475 24.2283 28.1379 25.7025 26.9213 26.9225C25.7046 28.1425 24.2308 28.7517 22.5 28.75ZM3.75 27.5V6.25C3.75 5.5625 3.995 4.97417 4.485 4.485C4.975 3.99583 5.56333 3.75083 6.25 3.75H23.75C24.4375 3.75 25.0263 3.995 25.5163 4.485C26.0063 4.975 26.2508 5.56333 26.25 6.25V14.5938C25.8542 14.4063 25.4479 14.25 25.0312 14.125C24.6146 14 24.1875 13.9062 23.75 13.8437V6.25H6.25V23.8125H13.8437C13.9479 24.4583 14.1096 25.0729 14.3288 25.6562C14.5479 26.2396 14.8342 26.7917 15.1875 27.3125L15 27.5L13.125 25.625L11.25 27.5L9.375 25.625L7.5 27.5L5.625 25.625L3.75 27.5ZM7.5 21.25H13.8437C13.9062 20.8125 14 20.3854 14.125 19.9688C14.25 19.5521 14.4063 19.1458 14.5938 18.75H7.5V21.25ZM7.5 16.25H16.375C17.1667 15.4792 18.0887 14.8696 19.1412 14.4212C20.1937 13.9729 21.3133 13.7492 22.5 13.75H7.5V16.25Z" fill="white"/>
</svg>
