<svg width="30" height="30" viewBox="0 0 30 30" fill="none" xmlns="http://www.w3.org/2000/svg">
<path d="M15 0.9375C7.23633 0.9375 0.9375 7.23633 0.9375 15C0.9375 22.7695 7.23633 29.0625 15 29.0625C22.7695 29.0625 29.0625 22.7695 29.0625 15C29.0625 7.23047 22.7695 0.9375 15 0.9375ZM15 4.45312C20.8242 4.45312 25.5469 9.17578 25.5469 15C25.5469 20.8242 20.8242 25.5469 15 25.5469C9.17578 25.5469 4.45312 20.8242 4.45312 15C4.45312 9.17578 9.17578 4.45312 15 4.45312ZM20.3496 8.21484C19.9687 8.21484 19.6172 8.35547 19.3652 8.69531C16.3184 12.8027 15.3223 14.3496 13.1543 18.6445C12.6621 17.9941 9.31055 14.4023 7.65234 13.1309C6.82031 12.4922 5.23242 14.7246 5.80078 15.3047C8.35547 17.9355 12.8965 23.7891 13.6348 23.7305C14.8887 23.6309 18.0352 15.7148 22.3535 10.0371C22.8223 9.42773 21.4746 8.20312 20.3496 8.21484Z" fill="white"/>
</svg>
