<svg width="30" height="30" viewBox="0 0 30 30" fill="none" xmlns="http://www.w3.org/2000/svg">
<path d="M21.25 26.25C22.6307 26.25 23.75 25.1307 23.75 23.75C23.75 22.3693 22.6307 21.25 21.25 21.25C19.8693 21.25 18.75 22.3693 18.75 23.75C18.75 25.1307 19.8693 26.25 21.25 26.25Z" stroke="#626262" stroke-width="1.5" stroke-linecap="round" stroke-linejoin="round"/>
<path d="M8.75 26.25C10.1307 26.25 11.25 25.1307 11.25 23.75C11.25 22.3693 10.1307 21.25 8.75 21.25C7.36929 21.25 6.25 22.3693 6.25 23.75C6.25 25.1307 7.36929 26.25 8.75 26.25Z" stroke="#626262" stroke-width="1.5" stroke-linecap="round" stroke-linejoin="round"/>
<path d="M2.5 11.25V17.4337C2.5 20.4112 2.5 21.9 3.415 22.825C4.02375 23.44 4.87875 23.6463 6.25 23.715M15.5338 6.25C16.675 6.625 17.5712 7.53 17.9412 8.68375C18.125 9.25375 18.125 9.95875 18.125 11.3713C18.125 12.3113 18.125 12.7813 18.2475 13.1613C18.368 13.5392 18.5762 13.8832 18.8551 14.1653C19.1341 14.4473 19.4759 14.6592 19.8525 14.7837C20.2287 14.9075 20.6937 14.9075 21.625 14.9075H27.5V17.4337C27.5 20.4112 27.5 21.9 26.585 22.825C25.9762 23.44 25.1213 23.6463 23.75 23.715M11.25 23.75H18.75" stroke="#626262" stroke-width="1.5" stroke-linecap="round" stroke-linejoin="round"/>
<path d="M18.125 8.75H20.4012C22.2212 8.75 23.13 8.75 23.87 9.1925C24.6113 9.63375 25.0425 10.435 25.905 12.0375L27.5 15M9.15875 10L11.0162 8.5325C12.005 7.75 12.5 7.36 12.5 6.875M12.5 6.875C12.5 6.39 12.005 6 11.0162 5.2175L9.15875 3.75M12.5 6.875H2.5" stroke="#626262" stroke-width="1.5" stroke-linecap="round" stroke-linejoin="round"/>
</svg>
