<svg width="30" height="30" viewBox="0 0 30 30" fill="none" xmlns="http://www.w3.org/2000/svg">
<path d="M19.6875 18.125C19.4389 18.125 19.2004 18.2238 19.0246 18.3996C18.8488 18.5754 18.75 18.8139 18.75 19.0625C18.75 19.3111 18.8488 19.5496 19.0246 19.7254C19.2004 19.9012 19.4389 20 19.6875 20H22.8125C23.0611 20 23.2996 19.9012 23.4754 19.7254C23.6512 19.5496 23.75 19.3111 23.75 19.0625C23.75 18.8139 23.6512 18.5754 23.4754 18.3996C23.2996 18.2238 23.0611 18.125 22.8125 18.125H19.6875ZM2.5 10.3125C2.5 9.23506 2.92801 8.20175 3.68988 7.43988C4.45175 6.67801 5.48506 6.25 6.5625 6.25H23.4375C23.971 6.25 24.4993 6.35508 24.9922 6.55924C25.485 6.7634 25.9329 7.06264 26.3101 7.43988C26.6874 7.81712 26.9866 8.26496 27.1908 8.75785C27.3949 9.25073 27.5 9.779 27.5 10.3125V19.6875C27.5 20.221 27.3949 20.7493 27.1908 21.2422C26.9866 21.735 26.6874 22.1829 26.3101 22.5601C25.9329 22.9374 25.485 23.2366 24.9922 23.4408C24.4993 23.6449 23.971 23.75 23.4375 23.75H6.5625C5.48506 23.75 4.45175 23.322 3.68988 22.5601C2.92801 21.7983 2.5 20.7649 2.5 19.6875V10.3125ZM25.625 11.875V10.3125C25.625 9.73234 25.3945 9.17594 24.9843 8.7657C24.5741 8.35547 24.0177 8.125 23.4375 8.125H6.5625C5.98234 8.125 5.42594 8.35547 5.0157 8.7657C4.60547 9.17594 4.375 9.73234 4.375 10.3125V11.875H25.625ZM4.375 13.75V19.6875C4.375 20.895 5.355 21.875 6.5625 21.875H23.4375C24.0177 21.875 24.5741 21.6445 24.9843 21.2343C25.3945 20.8241 25.625 20.2677 25.625 19.6875V13.75H4.375Z" fill="#589A73"/>
</svg>
