<svg width="30" height="30" viewBox="0 0 30 30" fill="none" xmlns="http://www.w3.org/2000/svg">
<path d="M4.39811 22.6205L14.0635 28.0982C14.4074 28.2946 14.7451 28.3928 15.0765 28.3928C15.4079 28.3928 15.7497 28.2946 16.1019 28.0982L25.7554 22.6205C26.3204 22.293 26.7481 21.9225 27.0385 21.5089C27.3292 21.0957 27.4745 20.451 27.4745 19.575V9.84801C27.4745 9.20944 27.3538 8.6814 27.1124 8.2639C26.8706 7.84605 26.492 7.48569 25.9767 7.18283L17.2804 2.24569C16.544 1.81997 15.8115 1.60712 15.0829 1.60712C14.3544 1.60712 13.6174 1.81997 12.872 2.24569L4.18918 7.18283C3.66525 7.48605 3.2824 7.8464 3.04061 8.2639C2.79918 8.6814 2.67847 9.20944 2.67847 9.84801V19.575C2.67847 20.451 2.82579 21.0957 3.12043 21.5089C3.41507 21.9221 3.84097 22.2927 4.39811 22.6205ZM5.50329 20.9994C5.14257 20.7948 4.89275 20.5798 4.75382 20.3544C4.61454 20.1294 4.5449 19.8491 4.5449 19.5134V10.2407L14.1128 15.706V25.8996L5.50329 20.9994ZM24.662 20.9994L16.0408 25.8996V15.706L25.607 10.2407V19.5134C25.607 19.8491 25.5374 20.1294 25.3981 20.3544C25.2588 20.5794 25.0136 20.7946 24.6626 21M15.0835 13.9875L5.60132 8.61962L9.39632 6.44622L18.8774 11.8377L15.0835 13.9875ZM20.8553 10.7207L11.3367 5.34051L13.6949 4.00176C14.6285 3.46962 15.5536 3.46962 16.4704 4.00176L24.564 8.61962L20.8553 10.7207Z" fill="#626262"/>
</svg>
